<svg xmlns="http://www.w3.org/2000/svg" viewBox="0 0 512 512" fill="none">
  <defs>
    <linearGradient id="base" x1="104" y1="84" x2="418" y2="452" gradientUnits="userSpaceOnUse">
      <stop offset="0" stop-color="#C6D7FF"/>
      <stop offset="0.38" stop-color="#5A77F4"/>
      <stop offset="0.72" stop-color="#2B46BD"/>
      <stop offset="1" stop-color="#241A74"/>
    </linearGradient>
    <linearGradient id="top" x1="133" y1="95" x2="340" y2="307" gradientUnits="userSpaceOnUse">
      <stop offset="0" stop-color="#E6EDFF"/>
      <stop offset="0.55" stop-color="#7CA0FF"/>
      <stop offset="1" stop-color="#3950D0"/>
    </linearGradient>
    <linearGradient id="band" x1="115" y1="245" x2="393" y2="287" gradientUnits="userSpaceOnUse">
      <stop offset="0" stop-color="#7D73D9"/>
      <stop offset="0.5" stop-color="#5B8CFF"/>
      <stop offset="1" stop-color="#6543BE"/>
    </linearGradient>
    <radialGradient id="shine" cx="0" cy="0" r="1" gradientUnits="userSpaceOnUse" gradientTransform="translate(193 152) rotate(38) scale(147 132)">
      <stop offset="0" stop-color="#FFFFFF" stop-opacity="0.8"/>
      <stop offset="1" stop-color="#FFFFFF" stop-opacity="0"/>
    </radialGradient>
    <linearGradient id="deep" x1="255" y1="306" x2="255" y2="484" gradientUnits="userSpaceOnUse">
      <stop offset="0" stop-color="#2A3FA7"/>
      <stop offset="1" stop-color="#140E4B"/>
    </linearGradient>
  </defs>
  <path d="M256 34L390 112L469 201L468 357L391 429L256 507L122 428L44 357L43 201L122 112L256 34Z" fill="url(#base)"/>
  <path d="M256 34L390 112L443 188L256 307L69 188L122 112L256 34Z" fill="url(#top)"/>
  <path d="M99 248L255 307L413 248L393 286L255 336L118 286L99 248Z" fill="url(#band)"/>
  <path d="M69 188L256 307L99 248L69 188Z" fill="#4E62CE" fill-opacity="0.6"/>
  <path d="M443 188L256 307L413 248L443 188Z" fill="#2942B3" fill-opacity="0.7"/>
  <path d="M255 307L393 286L391 429L255 507V307Z" fill="url(#deep)"/>
  <path d="M255 307L118 286L122 428L255 507V307Z" fill="#1F2686"/>
  <path d="M256 34L255 307L443 188L390 112L256 34Z" fill="#5E78ED" fill-opacity="0.45"/>
  <path d="M256 34L255 307L69 188L122 112L256 34Z" fill="#B9CAFF" fill-opacity="0.4"/>
  <path d="M125 132L256 64L256 168L190 212L125 132Z" fill="url(#shine)"/>
  <path d="M312 143L372 114L407 166L338 206L312 143Z" fill="#D9E6FF" fill-opacity="0.33"/>
</svg>
